<?xml version="1.0" encoding="UTF-8" standalone="no"?><!DOCTYPE svg PUBLIC "-//W3C//DTD SVG 1.1//EN" "http://www.w3.org/Graphics/SVG/1.1/DTD/svg11.dtd"><svg width="100%" height="100%" viewBox="0 0 1966 2696" version="1.1" xmlns="http://www.w3.org/2000/svg" xmlns:xlink="http://www.w3.org/1999/xlink" xml:space="preserve" xmlns:serif="http://www.serif.com/" style="fill-rule:evenodd;clip-rule:evenodd;stroke-linejoin:round;"><rect id="intro-building-blocks-1" x="0.265" y="0.387" width="1965.11" height="2694.94" style="fill:none;"/><path d="M157.696,59.887l1645.5,0c57.24,0 103.642,46.402 103.642,103.642l0,1543.17c0,57.24 -46.402,103.641 -103.642,103.641l-1645.5,0c-57.239,0 -103.641,-46.401 -103.641,-103.641l0,-1543.17c0,-57.24 46.402,-103.642 103.641,-103.642Z" style="fill:none;stroke:#009cd1;stroke-width:8.33px;stroke-dasharray:8.33,16.67;"/><path d="M536.234,1134.02l3.395,2.416l223.292,158.919l3.4,2.419" style="fill:none;stroke:#414141;stroke-width:8.33px;stroke-linejoin:miter;"/><path d="M751.33,1311.65l44.185,6.899l-20.992,-39.488l-23.193,32.589Z" style="fill:#414141;fill-rule:nonzero;"/><path d="M551.226,1120.14l-44.186,-6.899l20.992,39.488l23.194,-32.589Z" style="fill:#414141;fill-rule:nonzero;"/><path d="M438.028,822.604l2.745,3.135l367.41,419.605l2.745,3.136" style="fill:none;stroke:#414141;stroke-width:8.33px;stroke-linejoin:miter;"/><path d="M793.137,1258.52l41.397,16.919l-11.304,-43.269l-30.093,26.35Z" style="fill:#414141;fill-rule:nonzero;"/><path d="M455.82,812.564l-41.398,-16.919l11.304,43.269l30.094,-26.35Z" style="fill:#414141;fill-rule:nonzero;"/><path d="M715.061,944.521l2.001,3.655l142.862,260.921l2.007,3.664" style="fill:none;stroke:#414141;stroke-width:8.33px;stroke-linejoin:miter;"/><path d="M842.387,1218.71l36.752,25.481l-1.666,-44.69l-35.086,19.209Z" style="fill:#414141;fill-rule:nonzero;"/><path d="M734.605,938.571l-36.753,-25.481l1.667,44.69l35.086,-19.209Z" style="fill:#414141;fill-rule:nonzero;"/><path d="M689.201,585.236l1.387,3.929l212.094,600.84l1.39,3.937" style="fill:none;stroke:#414141;stroke-width:8.33px;stroke-linejoin:miter;"/><path d="M883.825,1196.67l32.175,31.061l5.544,-44.376l-37.719,13.315Z" style="fill:#414141;fill-rule:nonzero;"/><path d="M709.447,582.508l-32.174,-31.062l-5.545,44.376l37.719,-13.314Z" style="fill:#414141;fill-rule:nonzero;"/><path d="M923.611,864.666l0.522,4.134l38.769,307.002l0.523,4.135" style="fill:none;stroke:#414141;stroke-width:8.33px;stroke-linejoin:miter;"/><path d="M943.061,1178.31l24.853,37.179l14.831,-42.19l-39.684,5.011Z" style="fill:#414141;fill-rule:nonzero;"/><path d="M943.975,866.295l-24.853,-37.18l-14.832,42.191l39.685,-5.011Z" style="fill:#414141;fill-rule:nonzero;"/><path d="M1204.59,783.577l-1.205,3.989l-120.288,398.294l-1.207,3.997" style="fill:none;stroke:#414141;stroke-width:8.33px;stroke-linejoin:miter;"/><path d="M1063.95,1180.09l7.582,44.074l30.71,-32.51l-38.292,-11.564Z" style="fill:#414141;fill-rule:nonzero;"/><path d="M1222.54,793.348l-7.582,-44.074l-30.71,32.51l38.292,11.564Z" style="fill:#414141;fill-rule:nonzero;"/><path d="M1118.06,450.271l-0.485,4.138l-84.556,721.083l-0.486,4.14" style="fill:none;stroke:#414141;stroke-width:8.33px;stroke-linejoin:miter;"/><path d="M1013.15,1173.16l15.205,42.057l24.522,-37.399l-39.727,-4.658Z" style="fill:#414141;fill-rule:nonzero;"/><path d="M1137.44,456.738l-15.206,-42.057l-24.522,37.399l39.728,4.658Z" style="fill:#414141;fill-rule:nonzero;"/><path d="M1517.24,619.322l-2.179,3.552l-364.117,593.423l-2.184,3.558" style="fill:none;stroke:#414141;stroke-width:8.33px;stroke-linejoin:miter;"/><path d="M1133.89,1205.84l-3.873,44.554l37.966,-23.634l-34.093,-20.92Z" style="fill:#414141;fill-rule:nonzero;"/><path d="M1532.11,633.333l3.872,-44.553l-37.966,23.634l34.094,20.919Z" style="fill:#414141;fill-rule:nonzero;"/><path d="M1451.12,955.081l-2.768,3.114l-256.456,288.565l-2.768,3.116" style="fill:none;stroke:#414141;stroke-width:8.33px;stroke-linejoin:miter;"/><path d="M1176.95,1233.48l-11.622,43.185l41.521,-16.613l-29.899,-26.572Z" style="fill:#414141;fill-rule:nonzero;"/><path d="M1463.31,971.481l11.622,-43.185l-41.521,16.613l29.899,26.572Z" style="fill:#414141;fill-rule:nonzero;"/><path d="M1161.04,1113.43l-1.748,3.782l-38.358,82.998l-1.753,3.792" style="fill:none;stroke:#414141;stroke-width:8.33px;stroke-linejoin:miter;"/><path d="M1102.77,1191.83l1.376,44.7l34.934,-27.921l-36.31,-16.779Z" style="fill:#414141;fill-rule:nonzero;"/><path d="M1177.45,1125.6l-1.376,-44.701l-34.935,27.921l36.311,16.78Z" style="fill:#414141;fill-rule:nonzero;"/><path d="M492,933.592c-54.474,-54.475 -142.927,-54.475 -197.401,0c-54.474,54.474 -54.474,142.926 0,197.4c54.474,54.475 142.927,54.475 197.401,0c54.474,-54.474 54.474,-142.926 0,-197.4Z" style="fill:#009cd1;"/><path d="M1176.03,1286.76c-97.571,-97.571 -256.001,-97.571 -353.571,0c-97.571,97.57 -97.57,256 0,353.571c97.571,97.57 256,97.57 353.571,-0.001c97.57,-97.57 97.57,-256 0,-353.57Z" style="fill:#e8af2a;"/><path d="M729.5,691.925c-54.474,-54.474 -142.927,-54.474 -197.401,0c-54.474,54.474 -54.474,142.927 0,197.401c54.474,54.474 142.927,54.474 197.401,0c54.474,-54.474 54.474,-142.927 0,-197.401Z" style="fill:#009cd1;"/><text x="296.025px" y="1056.73px" style="font-family:'GillSans', 'Gill Sans', sans-serif;font-size:66.667px;fill:#fff;">Ser<tspan x="386.877px " y="1056.73px ">v</tspan>ice</text><g transform="matrix(4.16667,0,0,4.16667,-153.975,-364.105)"><text x="260px" y="435px" style="font-family:'GillSans', 'Gill Sans', sans-serif;font-size:16px;fill:#fff;">M2M</text><text x="245px" y="454px" style="font-family:'GillSans', 'Gill Sans', sans-serif;font-size:16px;fill:#fff;">Messaging</text></g><text x="533.525px" y="815.062px" style="font-family:'GillSans', 'Gill Sans', sans-serif;font-size:66.667px;fill:#fff;">Ser<tspan x="624.377px " y="815.062px ">v</tspan>ice</text><path d="M1000.33,591.925c-54.474,-54.474 -142.926,-54.474 -197.4,0c-54.475,54.474 -54.475,142.927 0,197.401c54.474,54.474 142.926,54.474 197.4,0c54.475,-54.474 54.475,-142.927 0,-197.401Z" style="fill:#009cd1;"/><path d="M1354.02,516.925c-54.474,-54.474 -142.926,-54.474 -197.401,0c-54.474,54.474 -54.474,142.927 0,197.401c54.475,54.474 142.927,54.474 197.401,0c54.475,-54.474 54.475,-142.927 0,-197.401Z" style="fill:#009cd1;"/><path d="M1333.35,855.461c-54.475,-54.475 -142.927,-54.475 -197.401,-0.001c-54.475,54.475 -54.475,142.927 -0.001,197.401c54.475,54.475 142.927,54.475 197.401,0c54.475,-54.474 54.475,-142.926 0.001,-197.4Z" style="fill:#009cd1;"/><path d="M1666.36,725.258c-54.474,-54.474 -142.927,-54.474 -197.401,0c-54.474,54.475 -54.474,142.927 0,197.401c54.474,54.474 142.927,54.474 197.401,0c54.474,-54.474 54.474,-142.926 0,-197.401Z" style="fill:#009cd1;"/><path d="M421.167,591.925c-54.475,-54.474 -142.927,-54.474 -197.401,0c-54.474,54.474 -54.474,142.927 0,197.401c54.474,54.474 142.926,54.474 197.401,0c54.474,-54.474 54.474,-142.927 0,-197.401Z" style="fill:#009cd1;"/><path d="M729.5,321.092c-54.474,-54.475 -142.927,-54.475 -197.401,0c-54.474,54.474 -54.474,142.926 0,197.4c54.474,54.475 142.927,54.475 197.401,0c54.474,-54.474 54.474,-142.926 0,-197.4Z" style="fill:#009cd1;"/><path d="M1237.19,177.342c-54.474,-54.475 -142.926,-54.475 -197.4,0c-54.475,54.474 -54.475,142.926 0,197.4c54.474,54.475 142.926,54.475 197.4,0c54.475,-54.474 54.475,-142.926 0,-197.4Z" style="fill:#009cd1;"/><path d="M1707.7,371.08c-54.474,-54.475 -142.926,-54.475 -197.4,0c-54.475,54.474 -54.474,142.926 0,197.4c54.474,54.475 142.926,54.474 197.401,0c54.474,-54.474 54.474,-142.926 -0.001,-197.4Z" style="fill:#009cd1;"/><path d="M717,2212.76c-54.474,-54.475 -142.926,-54.475 -197.401,-0.001c-54.474,54.475 -54.474,142.927 0,197.401c54.474,54.475 142.926,54.475 197.401,0.001c54.474,-54.475 54.474,-142.927 0,-197.401Z" style="fill:#d02367;"/><path d="M1012.83,2404.43c-54.474,-54.474 -142.926,-54.474 -197.4,0c-54.475,54.474 -54.475,142.927 -0.001,197.401c54.475,54.474 142.927,54.474 197.401,0c54.474,-54.474 54.475,-142.926 0,-197.401Z" style="fill:#d02367;"/><path d="M1239.27,1984.14c-54.475,-54.474 -142.927,-54.474 -197.401,0c-54.474,54.474 -54.474,142.926 0,197.401c54.474,54.474 142.926,54.474 197.401,0c54.474,-54.475 54.474,-142.927 0,-197.401Z" style="fill:#d02367;"/><path d="M1612.85,2316.93c-54.475,-54.474 -142.927,-54.474 -197.401,0c-54.475,54.474 -54.475,142.927 0,197.401c54.474,54.474 142.926,54.474 197.4,0c54.475,-54.474 54.475,-142.927 0.001,-197.401Z" style="fill:#d02367;"/><path d="M690.201,2151.41l1.707,-3.801l188.45,-419.458l1.713,-3.811" style="fill:none;stroke:#414141;stroke-width:8.33px;stroke-linejoin:miter;"/><path d="M898.607,1736.34l-1.852,-44.683l-34.635,28.292l36.487,16.391Z" style="fill:#414141;fill-rule:nonzero;"/><path d="M673.665,2139.42l1.852,44.683l34.635,-28.291l-36.487,-16.392Z" style="fill:#414141;fill-rule:nonzero;"/><path d="M928.446,2328.29l0.34,-4.153l46.79,-571.545l0.34,-4.153" style="fill:none;stroke:#414141;stroke-width:8.33px;stroke-linejoin:miter;"/><path d="M995.509,1754.22l-16.669,-41.498l-23.197,38.235l39.866,3.263Z" style="fill:#414141;fill-rule:nonzero;"/><path d="M908.853,2322.51l16.669,41.499l23.197,-38.235l-39.866,-3.264Z" style="fill:#414141;fill-rule:nonzero;"/><path d="M1101.54,1911.81l-0.927,-4.063l-36.839,-161.421l-0.928,-4.067" style="fill:none;stroke:#414141;stroke-width:8.33px;stroke-linejoin:miter;"/><path d="M1083.27,1741.87l-28.397,-34.548l-10.6,43.447l38.997,-8.899Z" style="fill:#414141;fill-rule:nonzero;"/><path d="M1081.11,1912.19l28.398,34.548l10.6,-43.447l-38.998,8.899Z" style="fill:#414141;fill-rule:nonzero;"/><text x="804.358px" y="715.062px" style="font-family:'GillSans', 'Gill Sans', sans-serif;font-size:66.667px;fill:#fff;">Ser<tspan x="895.211px " y="715.062px ">v</tspan>ice</text><text x="1158.53px" y="640.062px" style="font-family:'GillSans', 'Gill Sans', sans-serif;font-size:66.667px;fill:#fff;">Ser<tspan x="1249.38px " y="640.062px ">v</tspan>ice</text><text x="1137.69px" y="977.562px" style="font-family:'GillSans', 'Gill Sans', sans-serif;font-size:66.667px;fill:#fff;">Ser<tspan x="1228.54px " y="977.562px ">v</tspan>ice</text><text x="1471.03px" y="848.395px" style="font-family:'GillSans', 'Gill Sans', sans-serif;font-size:66.667px;fill:#fff;">Ser<tspan x="1561.88px " y="848.395px ">v</tspan>ice</text><text x="225.191px" y="715.062px" style="font-family:'GillSans', 'Gill Sans', sans-serif;font-size:66.667px;fill:#fff;">Ser<tspan x="316.044px " y="715.062px ">v</tspan>ice</text><text x="533.525px" y="444.229px" style="font-family:'GillSans', 'Gill Sans', sans-serif;font-size:66.667px;fill:#fff;">Ser<tspan x="624.377px " y="444.229px ">v</tspan>ice</text><text x="1041.86px" y="302.562px" style="font-family:'GillSans', 'Gill Sans', sans-serif;font-size:66.667px;fill:#fff;">Ser<tspan x="1132.71px " y="302.562px ">v</tspan>ice</text><text x="1512.69px" y="494.229px" style="font-family:'GillSans', 'Gill Sans', sans-serif;font-size:66.667px;fill:#fff;">Ser<tspan x="1603.54px " y="494.229px ">v</tspan>ice</text><text x="537.691px" y="2335.89px" style="font-family:'GillSans', 'Gill Sans', sans-serif;font-size:66.667px;fill:#fff;">Client</text><text x="833.525px" y="2527.56px" style="font-family:'GillSans', 'Gill Sans', sans-serif;font-size:66.667px;fill:#fff;">Client</text><text x="1058.53px" y="2106.73px" style="font-family:'GillSans', 'Gill Sans', sans-serif;font-size:66.667px;fill:#fff;">Client</text><text x="1433.53px" y="2440.06px" style="font-family:'GillSans', 'Gill Sans', sans-serif;font-size:66.667px;fill:#fff;">Client</text><path d="M1430.68,2261.3l-1.982,-3.665l-291.465,-538.926l-1.987,-3.674" style="fill:none;stroke:#414141;stroke-width:8.33px;stroke-linejoin:miter;"/><path d="M1154.82,1709.18l-36.62,-25.671l1.435,44.699l35.185,-19.028Z" style="fill:#414141;fill-rule:nonzero;"/><path d="M1411.11,2267.14l36.62,25.67l-1.436,-44.698l-35.184,19.028Z" style="fill:#414141;fill-rule:nonzero;"/><text x="1383.53px" y="1760.89px" style="font-family:'GillSans', 'Gill Sans', sans-serif;font-size:66.667px;fill:#009cd1;">cloud.iO cluster</text></svg>