<?xml version="1.0" encoding="UTF-8" standalone="no"?><!DOCTYPE svg PUBLIC "-//W3C//DTD SVG 1.1//EN" "http://www.w3.org/Graphics/SVG/1.1/DTD/svg11.dtd"><svg width="100%" height="100%" viewBox="0 0 4000 815" version="1.1" xmlns="http://www.w3.org/2000/svg" xmlns:xlink="http://www.w3.org/1999/xlink" xml:space="preserve" xmlns:serif="http://www.serif.com/" style="fill-rule:evenodd;clip-rule:evenodd;"><rect id="intro-motivation-1" x="0" y="0" width="4000" height="814.424" style="fill:none;"/><g><path d="M301.595,231.63c19.458,19.459 19.458,51.054 0,70.513c-19.459,19.458 -51.054,19.458 -70.512,0c-19.459,-19.459 -19.459,-51.054 0,-70.513c19.458,-19.458 51.053,-19.458 70.512,0Z" style="fill:none;stroke:#d54983;stroke-width:16.67px;"/><path d="M164.167,178.655c7.224,7.224 7.224,18.954 0,26.178c-7.224,7.224 -18.954,7.224 -26.178,0c-7.224,-7.224 -7.224,-18.954 0,-26.178c7.224,-7.224 18.954,-7.224 26.178,0Z" style="fill:none;stroke:#878787;stroke-width:8.33px;"/><path d="M164.167,226.43c7.224,7.224 7.224,18.954 0,26.178c-7.224,7.224 -18.954,7.224 -26.178,0c-7.224,-7.224 -7.224,-18.954 0,-26.178c7.224,-7.224 18.954,-7.224 26.178,0Z" style="fill:none;stroke:#878787;stroke-width:8.33px;"/><path d="M164.167,275.997c7.224,7.224 7.224,18.954 0,26.178c-7.224,7.224 -18.954,7.224 -26.178,0c-7.224,-7.224 -7.224,-18.954 0,-26.178c7.224,-7.224 18.954,-7.224 26.178,0Z" style="fill:none;stroke:#878787;stroke-width:8.33px;"/><path d="M164.167,325.563c7.224,7.225 7.224,18.955 0,26.179c-7.224,7.224 -18.954,7.224 -26.178,0c-7.224,-7.224 -7.224,-18.954 0,-26.179c7.224,-7.224 18.954,-7.224 26.178,0Z" style="fill:none;stroke:#878787;stroke-width:8.33px;"/><path d="M217.598,235.111l-47.567,-31.011" style="fill:none;stroke:#414141;stroke-width:8.33px;"/><path d="M209.723,253.444l-36.626,-8.697" style="fill:none;stroke:#414141;stroke-width:8.33px;"/><path d="M209.195,277.892l-35.886,6.912" style="fill:none;stroke:#414141;stroke-width:8.33px;"/><path d="M216.937,297.646l-46.634,29.036" style="fill:none;stroke:#414141;stroke-width:8.33px;"/><path d="M355.745,296.068l3.961,1.293l116.507,38.028l3.97,1.295" style="fill:none;stroke:#414141;stroke-width:8.33px;"/><path d="M470.016,354.404l44.231,-6.601l-31.82,-31.425l-12.411,38.026Z" style="fill:#414141;fill-rule:nonzero;"/><path d="M365.911,278.348l-44.231,6.602l31.82,31.424l12.411,-38.026Z" style="fill:#414141;fill-rule:nonzero;"/><path d="M301.595,462.477c19.458,19.458 19.458,51.053 0,70.512c-19.459,19.458 -51.054,19.458 -70.512,0c-19.459,-19.459 -19.459,-51.054 0,-70.512c19.458,-19.459 51.053,-19.459 70.512,0Z" style="fill:none;stroke:#d54983;stroke-width:16.67px;"/><path d="M164.167,409.501c7.224,7.224 7.224,18.954 0,26.178c-7.224,7.224 -18.954,7.224 -26.178,0c-7.224,-7.224 -7.224,-18.954 0,-26.178c7.224,-7.224 18.954,-7.224 26.178,0Z" style="fill:none;stroke:#878787;stroke-width:8.33px;"/><path d="M164.167,457.276c7.224,7.224 7.224,18.954 0,26.178c-7.224,7.224 -18.954,7.224 -26.178,0c-7.224,-7.224 -7.224,-18.954 0,-26.178c7.224,-7.224 18.954,-7.224 26.178,0Z" style="fill:none;stroke:#878787;stroke-width:8.33px;"/><path d="M164.167,506.843c7.224,7.224 7.224,18.954 0,26.178c-7.224,7.224 -18.954,7.224 -26.178,0c-7.224,-7.224 -7.224,-18.954 0,-26.178c7.224,-7.224 18.954,-7.224 26.178,0Z" style="fill:none;stroke:#878787;stroke-width:8.33px;"/><path d="M164.167,556.409c7.224,7.224 7.224,18.954 0,26.178c-7.224,7.224 -18.954,7.224 -26.178,0c-7.224,-7.224 -7.224,-18.954 0,-26.178c7.224,-7.224 18.954,-7.224 26.178,0Z" style="fill:none;stroke:#878787;stroke-width:8.33px;"/><path d="M217.598,465.957l-47.567,-31.011" style="fill:none;stroke:#414141;stroke-width:8.33px;"/><path d="M209.723,484.29l-36.626,-8.697" style="fill:none;stroke:#414141;stroke-width:8.33px;"/><path d="M209.195,508.738l-35.886,6.912" style="fill:none;stroke:#414141;stroke-width:8.33px;"/><path d="M216.937,528.492l-46.634,29.036" style="fill:none;stroke:#414141;stroke-width:8.33px;"/><g><clipPath id="_clip1"><rect x="510.104" y="263.306" width="191.148" height="90.751" clip-rule="nonzero"/></clipPath><g clip-path="url(#_clip1)"><path d="M665.893,283.962c33.256,13.653 33.256,35.787 0,49.44c-33.256,13.652 -87.174,13.652 -120.43,0c-33.256,-13.653 -33.256,-35.787 0,-49.44c33.256,-13.652 87.174,-13.652 120.43,0Z" style="fill:#d02367;fill-rule:nonzero;stroke:#d02367;stroke-width:12.5px;"/></g></g><clipPath id="_clip2"><rect x="510.081" y="297.009" width="191.195" height="194.976" clip-rule="nonzero"/></clipPath><g clip-path="url(#_clip2)"><path d="M520.497,307.426l0,144.381l0,1.544l0.426,0c1.058,7.101 9.046,14.061 24.543,19.485c33.265,11.643 87.212,11.643 120.477,0c15.495,-5.423 23.429,-12.385 24.49,-19.485l0.426,0l0,-145.925l-170.362,0Z" style="fill:none;stroke:#d02367;stroke-width:12.5px;"/></g><path d="M354.992,466.359l3.928,-1.39l117.61,-41.62l3.937,-1.393" style="fill:none;stroke:#414141;stroke-width:8.33px;"/><path d="M483.211,442.2l31.036,-32.199l-44.38,-5.509l13.344,37.708Z" style="fill:#414141;fill-rule:nonzero;"/><path d="M352.248,446.115l-31.036,32.199l44.38,5.509l-13.344,-37.708Z" style="fill:#414141;fill-rule:nonzero;"/><path d="M878.903,66.184l348.893,0c16.428,0 29.745,13.317 29.745,29.744l0,191.632c0,16.428 -13.317,29.745 -29.745,29.745l-348.893,0c-16.427,0 -29.744,-13.317 -29.744,-29.745l0,-191.632c0,-16.427 13.317,-29.744 29.744,-29.744Z" style="fill:#d02367;fill-rule:nonzero;"/><path d="M875.809,407.432l355.081,0c14.719,0 26.651,11.932 26.651,26.651l0,171.698c0,14.719 -11.932,26.651 -26.651,26.651l-355.081,0c-14.719,0 -26.65,-11.932 -26.65,-26.651l0,-171.698c0,-14.719 11.931,-26.651 26.65,-26.651Z" style="fill:#d02367;fill-rule:nonzero;"/><path d="M730.153,325.956l3.848,-1.598l78.206,-32.476l3.858,-1.602" style="fill:none;stroke:#414141;stroke-width:8.33px;"/><path d="M819.887,310.348l29.272,-33.811l-44.612,-3.13l15.34,36.941Z" style="fill:#414141;fill-rule:nonzero;"/><path d="M726.331,305.887l-29.271,33.811l44.612,3.13l-15.341,-36.941Z" style="fill:#414141;fill-rule:nonzero;"/><path d="M731.21,417.544l3.971,1.262l75.849,24.108l3.979,1.265" style="fill:none;stroke:#414141;stroke-width:8.33px;"/><path d="M804.979,461.977l44.18,-6.944l-32.063,-31.177l-12.117,38.121Z" style="fill:#414141;fill-rule:nonzero;"/><path d="M741.239,399.746l-44.179,6.944l32.062,31.177l12.117,-38.121Z" style="fill:#414141;fill-rule:nonzero;"/><g transform="matrix(4.16667,0,0,4.16667,-344.003,-420.765)"><text x="301px" y="143px" style="font-family:'GillSans-Light', 'Gill Sans', sans-serif;font-weight:300;font-size:18px;fill:#fff;">Real-time</text><text x="293px" y="163px" style="font-family:'GillSans-Light', 'Gill Sans', sans-serif;font-weight:300;font-size:18px;fill:#fff;">Monito</text><text x="344.205px" y="163px" style="font-family:'GillSans-Light', 'Gill Sans', sans-serif;font-weight:300;font-size:18px;fill:#fff;">r</text><text x="350.649px" y="163px" style="font-family:'GillSans-Light', 'Gill Sans', sans-serif;font-weight:300;font-size:18px;fill:#fff;">ing</text></g><g transform="matrix(4.16667,0,0,4.16667,-329.003,-420.765)"><text x="315px" y="222px" style="font-family:'GillSans-Light', 'Gill Sans', sans-serif;font-weight:300;font-size:18px;fill:#fff;">Data</text><text x="304px" y="242px" style="font-family:'GillSans-Light', 'Gill Sans', sans-serif;font-weight:300;font-size:18px;fill:#fff;">Ana</text><text x="332.512px" y="242px" style="font-family:'GillSans-Light', 'Gill Sans', sans-serif;font-weight:300;font-size:18px;fill:#fff;">l</text><text x="335.696px" y="242px" style="font-family:'GillSans-Light', 'Gill Sans', sans-serif;font-weight:300;font-size:18px;fill:#fff;">ysis</text></g><text x="366.83px" y="733.401px" style="font-family:'GillSans', 'Gill Sans', sans-serif;font-size:83.333px;fill:#d02367;">My Solution</text></g><g><path d="M1644.29,241.284c19.458,19.458 19.458,51.054 0,70.512c-19.459,19.458 -51.054,19.458 -70.512,0c-19.459,-19.458 -19.459,-51.054 0,-70.512c19.458,-19.459 51.053,-19.459 70.512,0Z" style="fill:none;stroke:#009a65;stroke-width:16.67px;"/><path d="M1506.86,188.308c7.224,7.225 7.224,18.955 0,26.179c-7.224,7.224 -18.954,7.224 -26.178,0c-7.224,-7.224 -7.224,-18.954 0,-26.179c7.224,-7.224 18.954,-7.224 26.178,0Z" style="fill:none;stroke:#878787;stroke-width:8.33px;"/><path d="M1506.86,236.083c7.224,7.225 7.224,18.955 0,26.179c-7.224,7.224 -18.954,7.224 -26.178,0c-7.224,-7.224 -7.224,-18.954 0,-26.179c7.224,-7.224 18.954,-7.224 26.178,0Z" style="fill:none;stroke:#878787;stroke-width:8.33px;"/><path d="M1506.86,285.65c7.224,7.224 7.224,18.954 0,26.178c-7.224,7.224 -18.954,7.224 -26.178,0c-7.224,-7.224 -7.224,-18.954 0,-26.178c7.224,-7.224 18.954,-7.224 26.178,0Z" style="fill:none;stroke:#878787;stroke-width:8.33px;"/><path d="M1506.86,335.216c7.224,7.224 7.224,18.954 0,26.178c-7.224,7.225 -18.954,7.225 -26.178,0c-7.224,-7.224 -7.224,-18.954 0,-26.178c7.224,-7.224 18.954,-7.224 26.178,0Z" style="fill:none;stroke:#878787;stroke-width:8.33px;"/><path d="M1560.29,244.764l-47.568,-31.011" style="fill:none;stroke:#414141;stroke-width:8.33px;"/><path d="M1552.42,263.097l-36.626,-8.696" style="fill:none;stroke:#414141;stroke-width:8.33px;"/><path d="M1551.89,287.546l-35.886,6.911" style="fill:none;stroke:#414141;stroke-width:8.33px;"/><path d="M1559.63,307.299l-46.633,29.036" style="fill:none;stroke:#414141;stroke-width:8.33px;"/><path d="M1698.44,305.721l3.961,1.293l116.508,38.028l3.969,1.295" style="fill:none;stroke:#414141;stroke-width:8.33px;"/><path d="M1812.71,364.058l44.232,-6.602l-31.82,-31.424l-12.412,38.026Z" style="fill:#414141;fill-rule:nonzero;"/><path d="M1708.61,288.001l-44.231,6.602l31.82,31.424l12.411,-38.026Z" style="fill:#414141;fill-rule:nonzero;"/><path d="M1644.29,472.13c19.458,19.458 19.458,51.053 0,70.512c-19.459,19.458 -51.054,19.458 -70.512,0c-19.459,-19.459 -19.459,-51.054 0,-70.512c19.458,-19.459 51.053,-19.459 70.512,0Z" style="fill:none;stroke:#009a65;stroke-width:16.67px;"/><path d="M1506.86,419.155c7.224,7.224 7.224,18.954 0,26.178c-7.224,7.224 -18.954,7.224 -26.178,0c-7.224,-7.224 -7.224,-18.954 0,-26.178c7.224,-7.224 18.954,-7.224 26.178,0Z" style="fill:none;stroke:#878787;stroke-width:8.33px;"/><path d="M1506.86,466.929c7.224,7.224 7.224,18.954 0,26.178c-7.224,7.224 -18.954,7.224 -26.178,0c-7.224,-7.224 -7.224,-18.954 0,-26.178c7.224,-7.224 18.954,-7.224 26.178,0Z" style="fill:none;stroke:#878787;stroke-width:8.33px;"/><path d="M1506.86,516.496c7.224,7.224 7.224,18.954 0,26.178c-7.224,7.224 -18.954,7.224 -26.178,0c-7.224,-7.224 -7.224,-18.954 0,-26.178c7.224,-7.224 18.954,-7.224 26.178,0Z" style="fill:none;stroke:#878787;stroke-width:8.33px;"/><path d="M1506.86,566.063c7.224,7.224 7.224,18.954 0,26.178c-7.224,7.224 -18.954,7.224 -26.178,0c-7.224,-7.224 -7.224,-18.954 0,-26.178c7.224,-7.224 18.954,-7.224 26.178,0Z" style="fill:none;stroke:#878787;stroke-width:8.33px;"/><path d="M1560.29,475.61l-47.568,-31.011" style="fill:none;stroke:#414141;stroke-width:8.33px;"/><path d="M1552.42,493.943l-36.626,-8.697" style="fill:none;stroke:#414141;stroke-width:8.33px;"/><path d="M1551.89,518.392l-35.886,6.912" style="fill:none;stroke:#414141;stroke-width:8.33px;"/><path d="M1559.63,538.145l-46.633,29.036" style="fill:none;stroke:#414141;stroke-width:8.33px;"/><g><clipPath id="_clip3"><rect x="1852.8" y="272.96" width="191.148" height="90.751" clip-rule="nonzero"/></clipPath><g clip-path="url(#_clip3)"><path d="M2008.59,293.616c33.255,13.652 33.255,35.787 0,49.439c-33.256,13.652 -87.175,13.652 -120.431,0c-33.256,-13.652 -33.256,-35.787 0,-49.439c33.256,-13.653 87.175,-13.653 120.431,0Z" style="fill:#009a65;fill-rule:nonzero;stroke:#009a65;stroke-width:12.5px;"/></g></g><clipPath id="_clip4"><rect x="1852.78" y="306.662" width="191.195" height="194.976" clip-rule="nonzero"/></clipPath><g clip-path="url(#_clip4)"><path d="M1863.19,317.079l0,144.381l0,1.544l0.426,0c1.058,7.101 9.045,14.061 24.542,19.485c33.265,11.643 87.213,11.643 120.478,0c15.494,-5.423 23.429,-12.385 24.489,-19.485l0.426,0l0,-145.925l-170.361,0Z" style="fill:none;stroke:#009a65;stroke-width:12.5px;"/></g><path d="M1697.69,476.013l3.928,-1.39l117.61,-41.621l3.936,-1.393" style="fill:none;stroke:#414141;stroke-width:8.33px;"/><path d="M1825.91,451.854l31.037,-32.199l-44.381,-5.51l13.344,37.709Z" style="fill:#414141;fill-rule:nonzero;"/><path d="M1694.94,455.769l-31.037,32.198l44.381,5.51l-13.344,-37.708Z" style="fill:#414141;fill-rule:nonzero;"/><path d="M2218.5,417.085l355.081,0c14.719,0 26.651,11.932 26.651,26.651l0,171.698c0,14.719 -11.932,26.651 -26.651,26.651l-355.081,0c-14.718,0 -26.65,-11.932 -26.65,-26.651l0,-171.698c0,-14.719 11.932,-26.651 26.65,-26.651Z" style="fill:#009a65;fill-rule:nonzero;"/><path d="M2073.91,427.197l3.971,1.262l75.849,24.108l3.979,1.264" style="fill:none;stroke:#414141;stroke-width:8.33px;"/><path d="M2147.68,471.63l44.179,-6.944l-32.063,-31.177l-12.116,38.121Z" style="fill:#414141;fill-rule:nonzero;"/><path d="M2083.93,409.399l-44.179,6.944l32.063,31.177l12.116,-38.121Z" style="fill:#414141;fill-rule:nonzero;"/><g transform="matrix(4.16667,0,0,4.16667,1022.09,-1241.72)"><text x="313px" y="421px" style="font-family:'GillSans-Light', 'Gill Sans', sans-serif;font-weight:300;font-size:18px;fill:#fff;">Data</text><text x="302px" y="441px" style="font-family:'GillSans-Light', 'Gill Sans', sans-serif;font-weight:300;font-size:18px;fill:#fff;">Ana</text><text x="330.512px" y="441px" style="font-family:'GillSans-Light', 'Gill Sans', sans-serif;font-weight:300;font-size:18px;fill:#fff;">l</text><text x="333.696px" y="441px" style="font-family:'GillSans-Light', 'Gill Sans', sans-serif;font-weight:300;font-size:18px;fill:#fff;">ysis</text><text x="154px" y="474px" style="font-family:'GillSans', 'Gill Sans', sans-serif;font-size:20px;fill:#009a65;">Colleague <tspan x="237.75px " y="474px ">A</tspan> Solution</text></g></g><g><path d="M2986.99,242.285c19.458,19.458 19.458,51.053 0,70.512c-19.458,19.458 -51.054,19.458 -70.512,0c-19.458,-19.459 -19.458,-51.054 0,-70.512c19.458,-19.459 51.054,-19.459 70.512,0Z" style="fill:none;stroke:#e8af2a;stroke-width:16.67px;"/><path d="M2849.56,189.31c7.224,7.224 7.224,18.954 0,26.178c-7.224,7.224 -18.954,7.224 -26.178,0c-7.224,-7.224 -7.224,-18.954 0,-26.178c7.224,-7.224 18.954,-7.224 26.178,0Z" style="fill:none;stroke:#878787;stroke-width:8.33px;"/><path d="M2849.56,237.084c7.224,7.224 7.224,18.954 0,26.178c-7.224,7.224 -18.954,7.224 -26.178,0c-7.224,-7.224 -7.224,-18.954 0,-26.178c7.224,-7.224 18.954,-7.224 26.178,0Z" style="fill:none;stroke:#878787;stroke-width:8.33px;"/><path d="M2849.56,286.651c7.224,7.224 7.224,18.954 0,26.178c-7.224,7.224 -18.954,7.224 -26.178,0c-7.224,-7.224 -7.224,-18.954 0,-26.178c7.224,-7.224 18.954,-7.224 26.178,0Z" style="fill:none;stroke:#878787;stroke-width:8.33px;"/><path d="M2849.56,336.218c7.224,7.224 7.224,18.954 0,26.178c-7.224,7.224 -18.954,7.224 -26.178,0c-7.224,-7.224 -7.224,-18.954 0,-26.178c7.224,-7.224 18.954,-7.224 26.178,0Z" style="fill:none;stroke:#878787;stroke-width:8.33px;"/><path d="M2902.99,245.765l-47.567,-31.011" style="fill:none;stroke:#414141;stroke-width:8.33px;"/><path d="M2895.11,264.098l-36.627,-8.697" style="fill:none;stroke:#414141;stroke-width:8.33px;"/><path d="M2894.59,288.547l-35.886,6.912" style="fill:none;stroke:#414141;stroke-width:8.33px;"/><path d="M2902.33,308.3l-46.633,29.036" style="fill:none;stroke:#414141;stroke-width:8.33px;"/><path d="M3041.14,306.723l3.961,1.292l116.508,38.028l3.969,1.296" style="fill:none;stroke:#414141;stroke-width:8.33px;"/><path d="M3155.41,365.059l44.232,-6.602l-31.82,-31.424l-12.412,38.026Z" style="fill:#414141;fill-rule:nonzero;"/><path d="M3051.3,289.003l-44.231,6.601l31.82,31.424l12.411,-38.025Z" style="fill:#414141;fill-rule:nonzero;"/><path d="M2986.99,473.131c19.458,19.458 19.458,51.054 0,70.512c-19.458,19.458 -51.054,19.458 -70.512,0c-19.458,-19.458 -19.458,-51.054 0,-70.512c19.458,-19.459 51.054,-19.459 70.512,0Z" style="fill:none;stroke:#e8af2a;stroke-width:16.67px;"/><path d="M2849.56,420.156c7.224,7.224 7.224,18.954 0,26.178c-7.224,7.224 -18.954,7.224 -26.178,0c-7.224,-7.224 -7.224,-18.954 0,-26.178c7.224,-7.224 18.954,-7.224 26.178,0Z" style="fill:none;stroke:#878787;stroke-width:8.33px;"/><path d="M2849.56,467.931c7.224,7.224 7.224,18.954 0,26.178c-7.224,7.224 -18.954,7.224 -26.178,0c-7.224,-7.224 -7.224,-18.954 0,-26.178c7.224,-7.224 18.954,-7.224 26.178,0Z" style="fill:none;stroke:#878787;stroke-width:8.33px;"/><path d="M2849.56,517.497c7.224,7.224 7.224,18.954 0,26.178c-7.224,7.224 -18.954,7.224 -26.178,0c-7.224,-7.224 -7.224,-18.954 0,-26.178c7.224,-7.224 18.954,-7.224 26.178,0Z" style="fill:none;stroke:#878787;stroke-width:8.33px;"/><path d="M2849.56,567.064c7.224,7.224 7.224,18.954 0,26.178c-7.224,7.224 -18.954,7.224 -26.178,0c-7.224,-7.224 -7.224,-18.954 0,-26.178c7.224,-7.224 18.954,-7.224 26.178,0Z" style="fill:none;stroke:#878787;stroke-width:8.33px;"/><path d="M2902.99,476.611l-47.567,-31.01" style="fill:none;stroke:#414141;stroke-width:8.33px;"/><path d="M2895.11,494.944l-36.627,-8.696" style="fill:none;stroke:#414141;stroke-width:8.33px;"/><path d="M2894.59,519.393l-35.886,6.911" style="fill:none;stroke:#414141;stroke-width:8.33px;"/><path d="M2902.33,539.146l-46.633,29.036" style="fill:none;stroke:#414141;stroke-width:8.33px;"/><g><clipPath id="_clip5"><rect x="3195.49" y="273.961" width="191.148" height="90.751" clip-rule="nonzero"/></clipPath><g clip-path="url(#_clip5)"><path d="M3351.28,294.617c33.256,13.652 33.256,35.787 0,49.439c-33.256,13.653 -87.175,13.653 -120.431,0c-33.256,-13.652 -33.256,-35.787 0,-49.439c33.256,-13.653 87.175,-13.653 120.431,0Z" style="fill:#e8af2a;fill-rule:nonzero;stroke:#e8af2a;stroke-width:12.5px;"/></g></g><clipPath id="_clip6"><rect x="3195.47" y="307.663" width="191.195" height="194.976" clip-rule="nonzero"/></clipPath><g clip-path="url(#_clip6)"><path d="M3205.89,318.08l0,144.381l0,1.544l0.426,0c1.058,7.101 9.045,14.061 24.542,19.485c33.265,11.643 87.213,11.643 120.478,0c15.494,-5.423 23.429,-12.385 24.489,-19.485l0.426,0l0,-145.925l-170.361,0Z" style="fill:none;stroke:#e8af2a;stroke-width:12.5px;"/></g><path d="M3040.38,477.014l3.928,-1.39l117.61,-41.62l3.936,-1.394" style="fill:none;stroke:#414141;stroke-width:8.33px;"/><path d="M3168.6,452.854l31.036,-32.198l-44.381,-5.51l13.345,37.708Z" style="fill:#414141;fill-rule:nonzero;"/><path d="M3037.64,456.769l-31.037,32.199l44.381,5.51l-13.344,-37.709Z" style="fill:#414141;fill-rule:nonzero;"/><path d="M3564.29,76.838l348.893,0c16.427,0 29.744,13.317 29.744,29.745l0,191.631c0,16.428 -13.317,29.745 -29.744,29.745l-348.893,0c-16.428,0 -29.745,-13.317 -29.745,-29.745l0,-191.631c0,-16.428 13.317,-29.745 29.745,-29.745Z" style="fill:#e8af2a;fill-rule:nonzero;"/><path d="M3561.2,418.086l355.081,0c14.718,0 26.65,11.932 26.65,26.651l0,171.699c0,14.718 -11.932,26.65 -26.65,26.65l-355.081,0c-14.719,0 -26.651,-11.932 -26.651,-26.65l0,-171.699c0,-14.719 11.932,-26.651 26.651,-26.651Z" style="fill:#e8af2a;fill-rule:nonzero;"/><g transform="matrix(4.16667,0,0,4.16667,2377.59,-2133.39)"><text x="295px" y="557px" style="font-family:'GillSans-Light', 'Gill Sans', sans-serif;font-weight:300;font-size:18px;fill:#fff;">Real-time</text><text x="287px" y="577px" style="font-family:'GillSans-Light', 'Gill Sans', sans-serif;font-weight:300;font-size:18px;fill:#fff;">Monito</text><text x="338.205px" y="577px" style="font-family:'GillSans-Light', 'Gill Sans', sans-serif;font-weight:300;font-size:18px;fill:#fff;">r</text><text x="344.649px" y="577px" style="font-family:'GillSans-Light', 'Gill Sans', sans-serif;font-weight:300;font-size:18px;fill:#fff;">ing</text></g><g transform="matrix(4.16667,0,0,4.16667,2382.59,-2133.39)"><text x="308px" y="635px" style="font-family:'GillSans-Light', 'Gill Sans', sans-serif;font-weight:300;font-size:18px;fill:#fff;">Data</text><text x="298px" y="655px" style="font-family:'GillSans-Light', 'Gill Sans', sans-serif;font-weight:300;font-size:18px;fill:#fff;">Ana</text><text x="326.512px" y="655px" style="font-family:'GillSans-Light', 'Gill Sans', sans-serif;font-weight:300;font-size:18px;fill:#fff;">l</text><text x="329.696px" y="655px" style="font-family:'GillSans-Light', 'Gill Sans', sans-serif;font-weight:300;font-size:18px;fill:#fff;">ysis</text><text x="150px" y="688px" style="font-family:'GillSans', 'Gill Sans', sans-serif;font-size:20px;fill:#e8af2a;">Colleague B Solution</text></g><path d="M3415.54,336.61l3.848,-1.598l78.206,-32.476l3.858,-1.602" style="fill:none;stroke:#414141;stroke-width:8.33px;"/><path d="M3505.28,321.003l29.271,-33.812l-44.612,-3.13l15.341,36.942Z" style="fill:#414141;fill-rule:nonzero;"/><path d="M3411.72,316.541l-29.271,33.811l44.612,3.131l-15.341,-36.942Z" style="fill:#414141;fill-rule:nonzero;"/><path d="M3416.6,428.198l3.971,1.263l75.849,24.107l3.979,1.265" style="fill:none;stroke:#414141;stroke-width:8.33px;"/><path d="M3490.37,472.631l44.179,-6.944l-32.063,-31.177l-12.116,38.121Z" style="fill:#414141;fill-rule:nonzero;"/><path d="M3426.63,410.4l-44.179,6.944l32.063,31.177l12.116,-38.121Z" style="fill:#414141;fill-rule:nonzero;"/></g></svg>